<svg width="40" height="40" viewBox="0 0 40 40" fill="none" xmlns="http://www.w3.org/2000/svg">
<path d="M28.333 3.33301H11.6663C7.06397 3.33301 3.33301 7.06397 3.33301 11.6663V28.333C3.33301 32.9354 7.06397 36.6663 11.6663 36.6663H28.333C32.9354 36.6663 36.6663 32.9354 36.6663 28.333V11.6663C36.6663 7.06397 32.9354 3.33301 28.333 3.33301Z" stroke="white" stroke-width="3" stroke-linecap="round" stroke-linejoin="round"/>
<path d="M26.6665 18.9505C26.8722 20.3376 26.6353 21.7542 25.9894 22.9989C25.3436 24.2435 24.3218 25.2529 23.0692 25.8833C21.8167 26.5137 20.3973 26.7332 19.0128 26.5104C17.6284 26.2876 16.3494 25.634 15.3579 24.6424C14.3664 23.6509 13.7127 22.372 13.4899 20.9875C13.2672 19.6031 13.4866 18.1837 14.117 16.9311C14.7475 15.6786 15.7568 14.6567 17.0015 14.0109C18.2461 13.3651 19.6628 13.1281 21.0498 13.3338C22.4647 13.5436 23.7746 14.2029 24.786 15.2143C25.7974 16.2258 26.4567 17.5356 26.6665 18.9505Z" stroke="white" stroke-width="3" stroke-linecap="round" stroke-linejoin="round"/>
<path d="M29.167 10.833H29.1837" stroke="white" stroke-width="3" stroke-linecap="round" stroke-linejoin="round"/>
</svg>
