<svg width="40" height="40" viewBox="0 0 40 40" fill="none" xmlns="http://www.w3.org/2000/svg">
<path d="M28.334 3.33301H11.6673C7.06494 3.33301 3.33398 7.06397 3.33398 11.6663V28.333C3.33398 32.9354 7.06494 36.6663 11.6673 36.6663H28.334C32.9364 36.6663 36.6673 32.9354 36.6673 28.333V11.6663C36.6673 7.06397 32.9364 3.33301 28.334 3.33301Z" stroke="black" stroke-width="3" stroke-linecap="round" stroke-linejoin="round"/>
<path d="M26.6655 18.9505C26.8712 20.3376 26.6343 21.7542 25.9885 22.9989C25.3426 24.2435 24.3208 25.2529 23.0682 25.8833C21.8157 26.5137 20.3963 26.7332 19.0118 26.5104C17.6274 26.2876 16.3485 25.634 15.3569 24.6424C14.3654 23.6509 13.7117 22.372 13.489 20.9875C13.2662 19.6031 13.4856 18.1837 14.1161 16.9311C14.7465 15.6786 15.7558 14.6567 17.0005 14.0109C18.2452 13.3651 19.6618 13.1281 21.0489 13.3338C22.4637 13.5436 23.7736 14.2029 24.785 15.2143C25.7964 16.2258 26.4557 17.5356 26.6655 18.9505Z" stroke="black" stroke-width="3" stroke-linecap="round" stroke-linejoin="round"/>
<path d="M29.166 10.833H29.1827" stroke="black" stroke-width="3" stroke-linecap="round" stroke-linejoin="round"/>
</svg>
