<svg width="855" height="697" viewBox="0 0 855 697" fill="none" xmlns="http://www.w3.org/2000/svg">
<path fill-rule="evenodd" clip-rule="evenodd" d="M711.058 334.197C691.389 349.686 663.673 363.983 627.911 377.089L804.039 696.988H855L689.601 400.322C727.747 386.62 756.952 364.579 777.218 334.197C798.079 303.22 808.509 260.626 808.509 206.416C808.509 164.716 798.973 128.675 779.9 98.2933C760.827 67.316 734.303 43.1894 700.329 25.9137C666.355 8.63789 627.017 9.6835e-06 582.315 9.6835e-06H287.278V696.988H298.017L506.629 697V428.916H538.506L661.885 696.988H709.27L566.222 386.024H506.629V344.026H552.811C593.341 344.026 625.527 332.708 649.368 310.07C673.806 287.433 686.024 255.562 686.024 214.458C686.024 176.928 673.806 147.44 649.368 125.994C624.931 103.953 592.447 92.9318 551.917 92.9318H506.629V42.8916H582.315C618.077 42.8916 649.666 49.7423 677.084 63.4438C704.502 76.5496 725.959 95.3147 741.456 119.739C757.549 144.163 765.595 173.056 765.595 206.416C765.595 234.414 761.423 258.839 753.078 279.689C745.33 300.539 731.323 318.708 711.058 334.197ZM506.629 135.823V92.9318H405.292V344.026H506.629V301.135H552.811C580.228 301.135 601.984 293.688 618.077 278.795C634.765 263.307 643.11 241.861 643.11 214.458C643.11 189.438 634.468 170.077 617.183 156.376C600.494 142.674 578.738 135.823 551.917 135.823H506.629ZM506.629 135.823V301.135H448.207V135.823H506.629ZM506.629 386.024H404.398V696.988H447.313V428.916H506.629V386.024ZM506.629 42.8916H330.192V696.988H298.017V11.926H506.629V42.8916Z" fill="black"/>
<path d="M179.137 86.2452C179.137 89.2651 178.063 91.8274 175.916 93.9322C173.768 96.037 171.154 97.0893 168.072 97.0893C164.991 97.0893 162.376 96.037 160.229 93.9322C157.988 91.8274 156.867 89.2651 156.867 86.2452C156.867 83.2253 157.988 80.663 160.229 78.5582C162.376 76.3619 164.991 75.2638 168.072 75.2638C171.154 75.2638 173.768 76.3619 175.916 78.5582C178.063 80.663 179.137 83.2253 179.137 86.2452Z" fill="black"/>
<path d="M268.215 609.92C268.215 635.772 261.562 654.761 248.257 666.886C234.951 679.011 212.891 685.074 182.078 685.074C157.568 685.074 131.19 681.07 102.944 673.063C74.6988 664.827 50.5384 651.787 30.4631 633.942C10.1544 615.868 1.21067e-06 592.991 0 565.308C-7.50418e-07 548.15 3.85166 534.309 11.555 523.785C19.2583 513.261 31.0467 507.999 46.9202 507.999C56.9578 507.999 64.8946 509.944 70.7304 513.833C76.3328 517.722 79.134 523.785 79.134 532.021C79.134 540.257 76.0994 546.777 70.0301 551.582C67.9292 547.464 63.7274 543.803 57.4247 540.6C51.122 537.397 44.5858 535.796 37.8163 535.796C31.5135 535.796 26.378 537.512 22.4096 540.943C18.4413 544.146 16.4571 549.408 16.4571 556.729C16.4571 568.854 24.9774 580.408 42.0181 591.389C58.8253 602.37 80.0677 611.293 105.745 618.156C131.423 624.791 156.167 628.108 179.977 628.108C197.718 628.108 211.257 625.134 220.595 619.186C229.932 613.237 234.601 602.485 234.601 586.928C234.601 573.43 231.566 560.961 225.497 549.523C219.428 538.084 210.791 528.246 199.586 520.01L203.087 512.117C217.794 517.837 230.049 526.301 239.853 537.512C249.657 548.722 256.894 560.733 261.562 573.544C265.998 586.356 268.215 598.481 268.215 609.92Z" fill="black"/>
<path d="M264.714 397.132C264.714 411.087 260.979 421.382 253.509 428.017C245.806 434.423 236.352 437.625 225.147 437.625C220.245 437.625 214.759 437.054 208.69 435.91C202.387 434.766 196.318 433.622 190.482 432.478C184.646 431.105 180.911 430.19 179.277 429.733C171.107 427.902 163.053 426.187 155.117 424.585C147.18 422.984 140.76 422.183 135.858 422.183C123.953 422.183 118.001 426.301 118.001 434.537C118.001 440.485 121.035 445.747 127.105 450.323C132.94 454.898 140.644 458.559 150.215 461.304L262.613 484.64V534.056L24.5105 484.296L17.5075 433.507L105.745 452.039C92.6732 440.6 86.137 427.216 86.137 411.888C86.137 400.22 89.4051 390.955 95.9412 384.091C102.477 377.228 112.398 373.796 125.704 373.796C132.474 373.796 140.06 374.597 148.464 376.198C156.634 377.8 166.672 380.088 178.577 383.062C185.813 384.892 192.933 386.608 199.936 388.209C206.705 389.582 212.074 390.268 216.043 390.268C220.711 390.268 224.33 389.239 226.897 387.18C229.465 385.121 230.749 381.575 230.749 376.542C230.749 369.678 228.298 364.187 223.396 360.069C218.26 355.951 210.44 351.833 199.936 347.715V333.302C225.614 341.767 242.888 351.605 251.758 362.815C260.395 373.796 264.714 385.235 264.714 397.132Z" fill="black"/>
<path d="M264.714 306.575C264.714 319.616 260.162 330.483 251.058 339.176C241.954 347.87 227.714 352.217 208.34 352.217C191.065 352.217 172.974 348.9 154.066 342.265C134.925 335.402 118.818 325.335 105.745 312.066C92.4397 298.568 85.7869 282.554 85.7869 264.023C85.7869 254.643 87.4209 247.665 90.6889 243.089C93.957 238.514 98.2755 236.226 103.645 236.226H106.096L87.5376 232.451V183.035L206.589 207.743C210.09 208.658 213.825 209.116 217.794 209.116C227.831 209.116 232.85 204.426 232.85 195.046C232.85 188.64 229.815 183.149 223.746 178.574C217.677 173.769 209.74 169.994 199.936 167.249V152.836C225.147 161.301 242.304 171.825 251.408 184.407C260.278 196.762 264.714 209.23 264.714 221.813C264.714 231.422 262.029 239.2 256.66 245.148C251.058 250.868 243.004 254.299 232.5 255.443C242.071 262.078 249.891 269.513 255.96 277.749C261.796 285.756 264.714 295.365 264.714 306.575ZM230.749 284.269C230.749 278.55 228.065 272.945 222.696 267.454C217.093 261.735 209.507 257.845 199.936 255.786L120.802 239.314C117.767 239.314 114.849 240.458 112.048 242.746C109.013 245.034 107.496 248.58 107.496 253.384C107.496 262.535 112.982 270.771 123.953 278.092C134.691 285.413 147.763 291.133 163.17 295.251C178.343 299.369 191.766 301.428 203.437 301.428C215.109 301.428 222.579 299.826 225.847 296.623C229.115 293.192 230.749 289.074 230.749 284.269Z" fill="black"/>
<path d="M264.013 117.02C264.013 133.95 259.578 147.334 250.708 157.171C241.837 167.009 227.831 171.927 208.69 171.927C192.583 171.927 174.958 168.839 155.817 162.662C136.442 156.485 119.751 146.419 105.745 132.463C91.506 118.508 84.3862 100.663 84.3862 78.9287C84.3862 51.9328 100.143 37.4054 131.657 35.3464C130.489 30.3132 127.688 25.852 123.253 21.9628C118.584 18.0736 113.332 14.4131 107.496 10.9814V0C120.102 6.17703 130.023 11.6677 137.259 16.4721C144.262 21.2764 149.981 27.5679 154.416 35.3464C176.359 36.719 195.617 41.1802 212.191 48.7299C228.765 56.0508 241.604 65.6596 250.708 77.5561C259.578 89.4526 264.013 102.607 264.013 117.02ZM232.5 103.294C232.5 94.8289 225.497 86.936 211.491 79.615C197.485 72.2941 180.211 67.261 159.669 64.5157C157.568 70.0064 152.315 72.7517 143.912 72.7517C134.808 72.7517 128.739 69.5488 125.704 63.143C118.234 63.6006 113.099 64.8588 110.297 66.9178C107.263 68.7481 105.745 71.8366 105.745 76.1834C105.745 83.7331 111.348 90.9396 122.553 97.803C133.524 104.666 146.946 110.271 162.82 114.618C178.46 118.736 192.233 120.795 204.138 120.795C215.342 120.795 222.929 119.537 226.897 117.02C230.632 114.504 232.5 109.928 232.5 103.294Z" fill="black"/>
<path d="M115.044 173.66H66.5253L90.7844 132.479L115.044 173.66Z" fill="black"/>
</svg>
