<svg width="1317" height="1076" viewBox="0 0 1317 1076" fill="none" xmlns="http://www.w3.org/2000/svg">
<g filter="url(#filter0_d_324_211)">
<path fill-rule="evenodd" clip-rule="evenodd" d="M1093.37 514.799C1063.11 538.639 1020.47 560.645 965.456 580.817L1236.4 1073.2H1314.8L1060.36 616.577C1119.04 595.488 1163.97 561.562 1195.14 514.799C1227.23 467.12 1243.28 401.56 1243.28 318.121C1243.28 253.938 1228.61 198.464 1199.27 151.702C1169.93 104.022 1129.12 66.8873 1076.86 40.2968C1024.6 13.7064 964.081 0.411133 895.312 0.411133H441.44V1073.2H457.961V1073.22H778.881V660.588H827.919L1017.72 1073.2H1090.61L870.556 594.571H778.881V529.928H849.925C912.275 529.928 961.788 512.507 998.465 477.664C1036.06 442.822 1054.86 393.767 1054.86 330.5C1054.86 272.734 1036.06 227.347 998.465 194.338C960.871 160.412 910.9 143.449 848.55 143.449H778.881V66.4288H895.312C950.327 66.4288 998.923 76.9733 1041.1 98.0623C1083.28 118.234 1116.29 147.117 1140.13 184.711C1164.88 222.304 1177.26 266.774 1177.26 318.121C1177.26 361.216 1170.84 398.81 1158.01 430.902C1146.09 462.994 1124.54 490.959 1093.37 514.799ZM778.881 209.467V143.449H622.989V529.928H778.881V463.911H849.925C892.103 463.911 925.57 452.449 950.327 429.526C976.001 405.687 988.837 372.678 988.837 330.5C988.837 291.989 975.542 262.19 948.952 241.101C923.278 220.012 889.811 209.467 848.55 209.467H778.881ZM778.881 209.467V463.911H689.007V209.467H778.881ZM778.881 594.571H621.614V1073.2H687.632V660.588H778.881V594.571ZM778.881 66.4288H507.458V1073.2H457.961V18.7669H778.881V66.4288Z" fill="white"/>
</g>
<path d="M275.169 132.816C275.169 137.466 273.519 141.412 270.22 144.654C266.921 147.895 262.906 149.516 258.172 149.516C253.439 149.516 249.423 147.895 246.124 144.654C242.682 141.412 240.961 137.466 240.961 132.816C240.961 128.165 242.682 124.219 246.124 120.978C249.423 117.596 253.439 115.905 258.172 115.905C262.906 115.905 266.921 117.596 270.22 120.978C273.519 124.219 275.169 128.165 275.169 132.816Z" fill="white"/>
<path d="M412 939.265C412 979.076 401.781 1008.32 381.342 1026.99C360.903 1045.66 327.018 1055 279.687 1055C242.037 1055 201.518 1048.83 158.131 1036.5C114.743 1023.82 77.631 1003.74 46.7937 976.258C15.5979 948.425 -6.19857e-06 913.193 -8.06199e-06 870.563C-9.217e-06 844.14 5.91645 822.824 17.7494 806.618C29.5823 790.412 47.6902 782.308 72.0731 782.308C87.4917 782.308 99.6832 785.303 108.648 791.292C117.253 797.282 121.556 806.618 121.556 819.301C121.556 831.985 116.895 842.026 107.572 849.424C104.345 843.083 97.8904 837.446 88.2089 832.513C78.5274 827.581 68.4874 825.115 58.0888 825.115C48.4073 825.115 40.5187 827.757 34.423 833.042C28.3273 837.974 25.2794 846.077 25.2794 857.351C25.2794 876.024 38.3673 893.816 64.5431 910.727C90.3603 927.638 122.99 941.378 162.433 951.948C201.876 962.165 239.885 967.274 276.46 967.274C303.711 967.274 324.508 962.693 338.851 953.533C353.194 944.373 360.366 927.814 360.366 903.857C360.366 883.07 355.704 863.869 346.381 846.253C337.058 828.638 323.791 813.488 306.58 800.805L311.958 788.65C334.548 797.458 353.373 810.493 368.433 827.757C383.494 845.02 394.609 863.517 401.781 883.246C408.594 902.976 412 921.649 412 939.265Z" fill="white"/>
<path d="M406.621 611.575C406.621 633.066 400.884 648.92 389.41 659.137C377.577 669.002 363.055 673.934 345.843 673.934C338.313 673.934 329.887 673.054 320.564 671.292C310.883 669.53 301.56 667.769 292.595 666.007C283.631 663.893 277.894 662.484 275.384 661.779C262.834 658.961 250.463 656.319 238.272 653.852C226.08 651.386 216.219 650.153 208.689 650.153C190.402 650.153 181.259 656.495 181.259 669.178C181.259 678.338 185.92 686.441 195.243 693.488C204.207 700.534 216.04 706.171 230.742 710.399L403.394 746.335L403.394 822.435L37.6501 745.807L26.8929 667.593L162.433 696.13C142.353 678.514 132.313 657.904 132.313 634.299C132.313 616.331 137.333 602.062 147.373 591.493C157.413 580.923 172.653 575.638 193.091 575.638C203.49 575.638 215.144 576.872 228.052 579.338C240.602 581.804 256.021 585.327 274.308 589.907C285.424 592.726 296.36 595.368 307.118 597.834C317.516 599.948 325.763 601.005 331.859 601.005C339.03 601.005 344.588 599.42 348.533 596.249C352.477 593.078 354.449 587.617 354.449 579.866C354.449 569.297 350.684 560.841 343.154 554.5C335.265 548.158 323.253 541.816 307.118 535.475L307.118 513.279C346.561 526.314 373.095 541.464 386.721 558.727C399.988 575.638 406.621 593.254 406.621 611.575Z" fill="white"/>
<path d="M406.621 472.12C406.621 492.202 399.629 508.937 385.645 522.325C371.661 535.713 349.788 542.407 320.026 542.407C293.492 542.407 265.702 537.298 236.658 527.081C207.255 516.512 182.514 501.01 162.433 480.575C141.995 459.789 131.775 435.127 131.775 406.589C131.775 392.144 134.285 381.399 139.305 374.352C144.326 367.306 150.959 363.783 159.206 363.783L162.971 363.783L134.465 357.97L134.465 281.87L317.337 319.92C322.715 321.329 328.453 322.034 334.548 322.034C349.967 322.034 357.676 314.811 357.676 300.366C357.676 290.502 353.015 282.046 343.692 275C334.369 267.601 322.178 261.788 307.118 257.56L307.118 235.364C345.843 248.4 372.198 264.606 386.183 283.984C399.809 303.009 406.621 322.21 406.621 341.587C406.621 356.384 402.498 368.363 394.251 377.523C385.645 386.331 373.274 391.616 357.138 393.377C371.84 403.595 383.852 415.045 393.175 427.728C402.139 440.059 406.621 454.856 406.621 472.12ZM354.449 437.769C354.449 428.961 350.326 420.33 342.078 411.874C333.473 403.066 321.819 397.077 307.118 393.906L185.561 368.539C180.9 368.539 176.418 370.301 172.115 373.824C167.453 377.347 165.123 382.808 165.123 390.207C165.123 404.299 173.549 416.983 190.402 428.257C206.896 439.531 226.977 448.339 250.642 454.68C273.95 461.022 294.567 464.193 312.496 464.193C330.425 464.193 341.899 461.727 346.919 456.794C351.939 451.509 354.449 445.168 354.449 437.769Z" fill="white"/>
<path d="M405.546 180.209C405.546 206.28 398.733 226.891 385.107 242.04C371.481 257.19 349.967 264.765 320.564 264.765C295.822 264.765 268.75 260.008 239.347 250.496C209.586 240.983 183.948 225.482 162.433 203.99C140.56 182.499 129.624 155.019 129.624 121.549C129.624 79.9755 153.828 57.6035 202.235 54.4327C200.442 46.6818 196.139 39.8116 189.326 33.8223C182.155 27.833 174.087 22.1958 165.123 16.9111L165.123 -7.21774e-06C184.486 9.51257 199.725 17.9681 210.841 25.3667C221.598 32.7653 230.383 42.454 237.196 54.4327C270.902 56.5466 300.484 63.4167 325.943 75.0431C351.401 86.3171 371.123 101.114 385.107 119.435C398.733 137.755 405.546 158.013 405.546 180.209ZM357.138 159.07C357.138 146.035 346.381 133.88 324.867 122.606C303.352 111.332 276.818 103.581 245.264 99.3528C242.037 107.808 233.969 112.036 221.06 112.036C207.076 112.036 197.753 107.104 193.091 97.239C181.617 97.9436 173.728 99.8813 169.426 103.052C164.764 105.871 162.433 110.627 162.433 117.321C162.433 128.947 171.039 140.045 188.251 150.615C205.104 161.184 225.722 169.816 250.104 176.51C274.129 182.851 295.285 186.022 313.572 186.022C330.783 186.022 342.437 184.085 348.533 180.209C354.27 176.334 357.138 169.287 357.138 159.07Z" fill="white"/>
<path d="M176.716 267.432L102.188 267.432L139.452 204.015L176.716 267.432Z" fill="white"/>
<defs>
<filter id="filter0_d_324_211" x="441.44" y="0.411133" width="875.359" height="1074.81" filterUnits="userSpaceOnUse" color-interpolation-filters="sRGB">
<feFlood flood-opacity="0" result="BackgroundImageFix"/>
<feColorMatrix in="SourceAlpha" type="matrix" values="0 0 0 0 0 0 0 0 0 0 0 0 0 0 0 0 0 0 127 0" result="hardAlpha"/>
<feOffset dx="1" dy="1"/>
<feGaussianBlur stdDeviation="0.5"/>
<feColorMatrix type="matrix" values="0 0 0 0 0 0 0 0 0 0 0 0 0 0 0 0 0 0 0.1 0"/>
<feBlend mode="normal" in2="BackgroundImageFix" result="effect1_dropShadow_324_211"/>
<feBlend mode="normal" in="SourceGraphic" in2="effect1_dropShadow_324_211" result="shape"/>
</filter>
</defs>
</svg>
