<svg width="40" height="40" viewBox="0 0 40 40" fill="none" xmlns="http://www.w3.org/2000/svg">
<path d="M38.3337 5.00016C36.7376 6.12595 34.9705 6.98701 33.1003 7.55016C32.0966 6.39601 30.7625 5.57798 29.2787 5.2067C27.7949 4.83543 26.2328 4.92882 24.8038 5.47425C23.3748 6.01968 22.1477 6.99083 21.2886 8.25635C20.4295 9.52188 19.9798 11.0207 20.0003 12.5502V14.2168C17.0714 14.2928 14.1691 13.6432 11.552 12.3259C8.9349 11.0086 6.68419 9.06455 5.00033 6.66682C5.00033 6.66682 -1.66634 21.6668 13.3337 28.3335C9.9012 30.6634 5.81225 31.8317 1.66699 31.6668C16.667 40.0002 35.0003 31.6668 35.0003 12.5002C34.9988 12.0359 34.9542 11.5728 34.867 11.1168C36.568 9.43931 37.7684 7.32135 38.3337 5.00016V5.00016Z" stroke="white" stroke-width="3" stroke-linecap="round" stroke-linejoin="round"/>
</svg>
